<svg xmlns="http://www.w3.org/2000/svg" viewBox="0 0 64 64" role="img" aria-label="Throne Board favicon">
  <defs>
    <linearGradient id="bg" x1="0" y1="0" x2="1" y2="1">
      <stop offset="0%" stop-color="#fdf2f8" />
      <stop offset="100%" stop-color="#f9a8d4" />
    </linearGradient>
  </defs>

  <rect width="64" height="64" rx="14" fill="url(#bg)" />

  <path
    d="M12 19a2 2 0 0 1 3.3-1.5L24 25l7-11.3a1.2 1.2 0 0 1 2 0L40 25l8.7-7.5A2 2 0 0 1 52 19l-3.5 25.5A3 3 0 0 1 45.5 47h-27a3 3 0 0 1-3-2.5L12 19z"
    fill="#fff"
  />

  <circle cx="16" cy="18" r="3" fill="#fff" />
  <circle cx="32" cy="11" r="3" fill="#fff" />
  <circle cx="48" cy="18" r="3" fill="#fff" />

  <rect x="20" y="39" width="24" height="4" rx="2" fill="#f9a8d4" opacity="0.25" />
</svg>
